PathFileType	4	(X/Y/Z)	s01c0402.trc
DataRate	CameraRate	NumFrames	NumMarkers	Units	OrigDataRate	OrigDataStartFrame	OrigNumFrames
200	200	5	48	mm	200	0	2000
Frame#	Time	racr			lacr			c7			jug			rlel			rdr			llel			ldr			s2			lic			ric			lasi			rasi			rpsi			lpsi			rgt			lgt			rth1			rth2			rth3			rth4			rlfc			rsh1			rsh2			rsh3			rsh4			rlmal			rmmal			rcal			rtoe			rmt5			lth1			lth2			lth4			lth3			llfc			lsh1			lsh2			lsh3			lsh4			llmal			lmmal			lcal			ltoe			lmt5			SBIKE			LBIKE			RBIKE			
		X1	Y1	Z1	X2	Y2	Z2	X3	Y3	Z3	X4	Y4	Z4	X5	Y5	Z5	X6	Y6	Z6	X7	Y7	Z7	X8	Y8	Z8	X9	Y9	Z9	X10	Y10	Z10	X11	Y11	Z11	X12	Y12	Z12	X13	Y13	Z13	X14	Y14	Z14	X15	Y15	Z15	X16	Y16	Z16	X17	Y17	Z17	X18	Y18	Z18	X19	Y19	Z19	X20	Y20	Z20	X21	Y21	Z21	X22	Y22	Z22	X23	Y23	Z23	X24	Y24	Z24	X25	Y25	Z25	X26	Y26	Z26	X27	Y27	Z27	X28	Y28	Z28	X29	Y29	Z29	X30	Y30	Z30	X31	Y31	Z31	X32	Y32	Z32	X33	Y33	Z33	X34	Y34	Z34	X35	Y35	Z35	X36	Y36	Z36	X37	Y37	Z37	X38	Y38	Z38	X39	Y39	Z39	X40	Y40	Z40	X41	Y41	Z41	X42	Y42	Z42	X43	Y43	Z43	X44	Y44	Z44	X45	Y45	Z45	X46	Y46	Z46	X47	Y47	Z47	X48	Y48	Z48	
0	0.0000	457.046055	1358.454658	-119.791045	451.935337	1337.250704	-454.212344	413.263971	1411.944203	-280.396177	439.861977	1256.731914	-278.767115	540.477689	1094.897743	-25.081350	708.334463	894.727378	-67.161311	509.405120	1067.921341	-545.870941	696.203709	895.336364	-475.869299	-76.179861	1138.098086	-246.249455	105.892849	1160.610861	-435.259495	95.301828	1126.595314	-103.425127	79.719741	1108.322372	-410.165288	116.807224	1076.552911	-131.965841	-42.164727	1171.239230	-193.630756	-54.844787	1184.028167	-297.588696	34.068110	1006.120943	-76.105607	22.331174	1043.817583	-465.801561	106.943638	890.530819	-63.286632	157.847930	825.289937	-68.727777	208.175920	751.534638	-83.714158	201.986306	858.527508	-81.306282	245.040274	652.031795	-108.032795	175.246487	556.747249	-71.678132	137.023792	482.063735	-73.280665	86.579343	407.669370	-84.013696	174.510999	460.441196	-115.366506	13.070924	302.502654	-100.029314	60.751573	311.332999	-179.952889	-39.526119	279.168314	-155.091671	221.500047	205.399040	-143.899026	114.346195	198.784198	-73.665405	126.145028	975.478202	-472.400228	214.829877	969.175338	-480.022117	220.489736	1023.257220	-470.735789	298.977057	954.806765	-469.381208	404.634728	890.912776	-449.931362	326.066358	809.311220	-467.235657	291.772384	730.266642	-456.178822	256.962992	653.788015	-436.949903	345.725240	710.593461	-432.350313	210.776468	534.397051	-414.096545	242.240966	546.541641	-333.078901	161.211239	494.874665	-371.141285	438.139300	487.552543	-386.228422	332.612529	460.806845	-448.795318	0.000000	0.000000	-0.000000	-22.749366	80.559619	-456.501928	-22.941186	80.470821	-55.992647	
1	0.0050	457.068525	1358.462028	-119.849971	451.933735	1337.217098	-454.254296	413.221471	1411.951335	-280.428888	439.848142	1256.772768	-278.809441	540.493750	1094.904927	-25.121454	708.326505	894.743446	-67.159739	509.398448	1067.937619	-545.866488	696.180365	895.340254	-475.883794	-76.203548	1138.110639	-246.277075	105.858231	1160.661169	-435.308796	95.274802	1126.569438	-103.462995	79.698041	1108.260004	-410.151528	116.768505	1076.546678	-131.915729	-42.772799	1170.809303	-193.681210	-54.703718	1183.243993	-298.148402	34.042303	1006.107442	-76.106928	22.276744	1043.806587	-465.828027	106.884750	890.546125	-63.256229	157.780368	825.295920	-68.702169	208.085809	751.541504	-83.672817	201.931558	858.521629	-81.282871	244.961200	652.013258	-107.986356	175.229092	556.693629	-71.643227	137.075267	481.940472	-73.255485	86.679924	407.559927	-83.995329	174.588175	460.402219	-115.344840	13.238316	302.338978	-100.027196	60.799078	311.207765	-179.980457	-39.328930	279.019427	-155.103522	221.686124	205.258904	-143.886180	114.519125	198.670319	-73.664134	126.140093	975.507207	-472.436996	214.794260	969.199472	-480.057682	220.487716	1023.318735	-470.774858	298.965183	954.875349	-469.408704	404.617492	891.050915	-449.980527	326.041120	809.441610	-467.252787	291.667527	730.465817	-456.202493	256.865136	653.955883	-436.954048	345.638855	710.737355	-432.327626	210.612933	534.565154	-414.088880	242.050203	546.722621	-333.071381	161.037329	495.089119	-371.127876	437.966896	487.678465	-386.215053	332.422058	460.969956	-448.776766	-230.675871	890.482267	-255.739747	-22.739391	80.549274	-456.508161	-22.928392	80.467601	-55.991095	
2	0.0100	457.087299	1358.463660	-119.908972	451.915757	1337.212589	-454.291758	413.167256	1411.974762	-280.468236	439.831475	1256.799845	-278.850014	540.489366	1094.925418	-25.161405	708.316985	894.727949	-67.178216	509.375812	1067.948474	-545.892880	696.166646	895.347719	-475.907273	-76.232149	1138.091953	-246.341634	105.828420	1160.610663	-435.369206	95.230977	1126.582582	-103.454385	79.668369	1108.204784	-410.143363	116.736642	1076.541906	-131.904106	-42.636820	1171.191541	-193.626610	-54.727426	1183.243404	-298.171606	33.992851	1006.135490	-76.084390	22.228239	1043.786062	-465.855270	106.813916	890.561716	-63.228002	157.725500	825.304756	-68.678145	208.014269	751.547559	-83.639645	201.870611	858.529430	-81.239554	244.894361	652.022869	-107.945150	175.244113	556.651164	-71.609803	137.128336	481.871616	-73.237243	86.786058	407.455512	-83.999971	174.631330	460.341936	-115.310978	13.400894	302.215500	-100.008533	60.918464	311.118130	-179.981001	-39.168542	278.894281	-155.109238	221.864711	205.134047	-143.871279	114.686129	198.540412	-73.647509	126.105532	975.512061	-472.465531	214.759452	969.217692	-480.092567	220.442958	1023.351384	-470.794422	298.951282	954.940077	-469.450128	404.603100	891.161086	-450.018499	325.986607	809.555602	-467.280572	291.593594	730.609251	-456.221479	256.766772	654.095933	-436.969485	345.559422	710.854981	-432.351978	210.473242	534.720007	-414.088225	241.864206	546.911354	-333.063739	160.881280	495.281992	-371.143575	437.817334	487.786785	-386.210430	332.269988	461.110259	-448.749894	-230.643286	890.461491	-255.805922	-22.738736	80.559176	-456.524267	-22.938590	80.458918	-56.003197	
3	0.0150	457.070056	1358.481886	-119.955964	451.536017	1336.664773	-454.249843	413.129832	1411.987635	-280.500599	439.840844	1256.825264	-278.885211	540.382168	1094.964228	-25.124109	708.327324	894.791335	-67.194002	509.344562	1067.939483	-545.913940	696.157647	895.359657	-475.935328	-76.266180	1138.108923	-246.379593	105.814494	1160.529898	-435.402641	95.353665	1126.792895	-103.137546	79.660562	1108.134992	-410.152773	116.865338	1076.582880	-131.883066	-42.757172	1171.265607	-193.591552	-55.489229	1183.467622	-297.792269	34.306215	1006.030971	-75.807091	22.272581	1043.691929	-465.882484	106.534315	890.996031	-62.917182	157.669017	825.331941	-68.624687	207.887103	751.499999	-83.762051	201.804990	857.735047	-81.692630	244.847443	652.022541	-107.890269	175.218890	556.611430	-71.571632	136.512756	481.251884	-73.368916	86.875090	407.369330	-83.968224	175.177099	460.068292	-114.670343	14.233644	301.432204	-100.151929	60.999319	311.005911	-179.991152	-39.101722	278.945029	-155.205038	221.999217	205.024875	-143.858090	114.853541	198.391678	-73.640269	126.077070	975.501224	-472.488194	214.724938	969.233657	-480.127224	220.494284	1023.403233	-470.810343	298.708820	955.134241	-469.659062	404.614309	891.222834	-450.026855	325.965950	809.642700	-467.293148	291.449629	730.975678	-456.052475	256.680064	654.241730	-436.983807	345.866477	710.839644	-433.697115	210.336309	535.521143	-413.592790	242.958769	547.543658	-332.270020	160.748475	495.435954	-371.156224	437.671933	487.909251	-386.204236	332.420050	461.278815	-448.796899	-230.608464	890.429621	-255.851497	-22.732399	80.564908	-456.510485	-22.945281	80.477579	-55.996095	
4	0.0200	457.172381	1358.496741	-120.010765	451.586428	1336.596425	-454.325003	413.162172	1412.130572	-280.526821	439.806874	1256.835338	-278.980450	540.438261	1094.946789	-25.084121	708.646162	894.804057	-67.299484	510.120371	1067.900957	-545.132211	696.152773	895.375526	-475.967240	-76.262650	1138.033870	-246.530275	105.816451	1159.869440	-435.599754	95.357255	1126.782631	-103.138621	79.672606	1108.052108	-410.178048	116.835476	1076.522839	-131.830259	-42.633320	1171.408061	-193.617211	-55.880184	1183.594151	-297.619986	34.388978	1005.929401	-75.591419	22.281297	1043.714107	-466.001186	106.488276	891.018220	-62.869153	157.536440	825.308209	-68.623568	207.849062	751.493935	-83.700623	201.769164	857.743091	-81.649376	244.697646	652.064082	-107.905430	175.247990	556.597860	-71.586474	136.678833	481.245266	-73.234855	86.942819	407.303903	-83.945624	174.899394	460.116385	-115.256425	14.349449	301.348679	-100.116727	61.108972	310.922130	-179.979488	-38.988870	278.832242	-155.166153	222.140458	204.948178	-143.877892	114.943446	198.297122	-73.686145	126.053986	975.475909	-472.505712	214.691216	969.243523	-480.161230	220.504504	1023.382859	-470.898298	297.857301	955.303878	-470.070797	404.598433	891.226445	-450.153154	325.945271	809.675383	-467.341070	291.415243	731.032528	-456.075194	256.491770	654.387430	-437.046553	345.794448	710.905858	-433.710856	210.265441	535.505334	-413.503689	242.842439	547.659225	-332.254470	160.637610	495.552680	-371.166116	437.493957	487.900769	-386.184934	332.264056	461.364913	-448.802448	-230.588564	890.412849	-255.888315	-22.680286	80.300126	-456.601537	-22.942376	80.383145	-55.879586	
